<svg width="1200" height="320" viewBox="0 0 1200 320" fill="none" xmlns="http://www.w3.org/2000/svg">
  <rect width="1200" height="320" fill="#06111F"/>
  <g opacity="0.15" stroke="#22C55E">
    <path d="M0 40H1200"/>
    <path d="M0 80H1200"/>
    <path d="M0 120H1200"/>
    <path d="M0 160H1200"/>
    <path d="M0 200H1200"/>
    <path d="M0 240H1200"/>
    <path d="M0 280H1200"/>
    <path d="M80 0V320"/>
    <path d="M160 0V320"/>
    <path d="M240 0V320"/>
    <path d="M320 0V320"/>
    <path d="M400 0V320"/>
    <path d="M480 0V320"/>
    <path d="M560 0V320"/>
    <path d="M640 0V320"/>
    <path d="M720 0V320"/>
    <path d="M800 0V320"/>
    <path d="M880 0V320"/>
    <path d="M960 0V320"/>
    <path d="M1040 0V320"/>
    <path d="M1120 0V320"/>
  </g>
  <path d="M0 164L64 72L108 250L164 54L218 262L272 68L328 254L382 64L438 260L494 72L548 250L602 58L658 260L712 70L768 248L822 62L878 256L934 70L990 248L1044 60L1100 258L1154 74L1200 164" stroke="#F59E0B" stroke-width="10" stroke-linecap="round" stroke-linejoin="round"/>
  <text x="48" y="54" fill="#FCD34D" font-family="monospace" font-size="28">VENTRICULAR TACHYCARDIA</text>
</svg>
